<mxfile host="app.diagrams.net" modified="2024-06-02T10:46:47.947Z" agent="Mozilla/5.0 (Windows NT 10.0; Win64; x64) AppleWebKit/537.36 (KHTML, like Gecko) Chrome/125.0.0.0 Safari/537.36 Edg/125.0.0.0" etag="oy8wQY354NVlyiRQhjY2" version="24.4.13" type="github">
  <diagram id="C5RBs43oDa-KdzZeNtuy" name="Page-1">
    <mxGraphModel dx="1649" dy="780" grid="0" gridSize="10" guides="1" tooltips="1" connect="1" arrows="1" fold="1" page="1" pageScale="1" pageWidth="827" pageHeight="1169" background="#FFFFFF" math="0" shadow="0">
      <root>
        <mxCell id="WIyWlLk6GJQsqaUBKTNV-0" />
        <mxCell id="WIyWlLk6GJQsqaUBKTNV-1" parent="WIyWlLk6GJQsqaUBKTNV-0" />
        <mxCell id="q4vgkcuRcYHfCYElYH8W-12" value="" style="ellipse;whiteSpace=wrap;html=1;" parent="WIyWlLk6GJQsqaUBKTNV-1" vertex="1">
          <mxGeometry x="295.5" y="320" width="126" height="35" as="geometry" />
        </mxCell>
        <mxCell id="q4vgkcuRcYHfCYElYH8W-61" value="" style="ellipse;whiteSpace=wrap;html=1;" parent="WIyWlLk6GJQsqaUBKTNV-1" vertex="1">
          <mxGeometry x="650" y="510" width="120" height="40" as="geometry" />
        </mxCell>
        <mxCell id="q4vgkcuRcYHfCYElYH8W-37" value="" style="ellipse;whiteSpace=wrap;html=1;" parent="WIyWlLk6GJQsqaUBKTNV-1" vertex="1">
          <mxGeometry x="295.5" y="410" width="126" height="35" as="geometry" />
        </mxCell>
        <mxCell id="q4vgkcuRcYHfCYElYH8W-18" value="" style="ellipse;whiteSpace=wrap;html=1;" parent="WIyWlLk6GJQsqaUBKTNV-1" vertex="1">
          <mxGeometry x="430" y="235" width="126" height="40" as="geometry" />
        </mxCell>
        <mxCell id="q4vgkcuRcYHfCYElYH8W-0" value="User&lt;div&gt;&lt;br&gt;&lt;/div&gt;" style="shape=umlActor;verticalLabelPosition=bottom;verticalAlign=top;html=1;outlineConnect=0;" parent="WIyWlLk6GJQsqaUBKTNV-1" vertex="1">
          <mxGeometry x="81" y="550" width="19" height="34" as="geometry" />
        </mxCell>
        <mxCell id="q4vgkcuRcYHfCYElYH8W-1" value="Parent&lt;div&gt;&lt;br&gt;&lt;/div&gt;" style="shape=umlActor;verticalLabelPosition=bottom;verticalAlign=top;html=1;outlineConnect=0;" parent="WIyWlLk6GJQsqaUBKTNV-1" vertex="1">
          <mxGeometry x="200" y="376" width="19" height="34" as="geometry" />
        </mxCell>
        <mxCell id="q4vgkcuRcYHfCYElYH8W-2" value="Child&lt;div&gt;&lt;br&gt;&lt;/div&gt;" style="shape=umlActor;verticalLabelPosition=bottom;verticalAlign=top;html=1;outlineConnect=0;" parent="WIyWlLk6GJQsqaUBKTNV-1" vertex="1">
          <mxGeometry x="203" y="727" width="19" height="34" as="geometry" />
        </mxCell>
        <mxCell id="q4vgkcuRcYHfCYElYH8W-8" value="" style="endArrow=none;html=1;rounded=0;fontSize=12;startSize=8;endSize=8;curved=1;" parent="WIyWlLk6GJQsqaUBKTNV-1" edge="1">
          <mxGeometry width="50" height="50" relative="1" as="geometry">
            <mxPoint x="110" y="550" as="sourcePoint" />
            <mxPoint x="190" y="390" as="targetPoint" />
          </mxGeometry>
        </mxCell>
        <mxCell id="q4vgkcuRcYHfCYElYH8W-9" value="" style="endArrow=none;html=1;rounded=0;fontSize=12;startSize=8;endSize=8;curved=1;" parent="WIyWlLk6GJQsqaUBKTNV-1" edge="1">
          <mxGeometry width="50" height="50" relative="1" as="geometry">
            <mxPoint x="110" y="580" as="sourcePoint" />
            <mxPoint x="190" y="739" as="targetPoint" />
          </mxGeometry>
        </mxCell>
        <mxCell id="q4vgkcuRcYHfCYElYH8W-11" value="" style="endArrow=classic;html=1;rounded=0;fontSize=12;startSize=8;endSize=8;curved=1;" parent="WIyWlLk6GJQsqaUBKTNV-1" edge="1">
          <mxGeometry width="50" height="50" relative="1" as="geometry">
            <mxPoint x="208.97" y="702" as="sourcePoint" />
            <mxPoint x="208.97" y="452" as="targetPoint" />
          </mxGeometry>
        </mxCell>
        <mxCell id="q4vgkcuRcYHfCYElYH8W-17" value="Filter URL&amp;nbsp;" style="text;html=1;align=center;verticalAlign=middle;whiteSpace=wrap;rounded=0;fontSize=12;movable=1;resizable=1;rotatable=1;deletable=1;editable=1;locked=0;connectable=1;" parent="WIyWlLk6GJQsqaUBKTNV-1" vertex="1">
          <mxGeometry x="437.5" y="240" width="111" height="30" as="geometry" />
        </mxCell>
        <mxCell id="q4vgkcuRcYHfCYElYH8W-19" value="" style="ellipse;whiteSpace=wrap;html=1;" parent="WIyWlLk6GJQsqaUBKTNV-1" vertex="1">
          <mxGeometry x="501.25" y="300" width="128.5" height="35" as="geometry" />
        </mxCell>
        <mxCell id="q4vgkcuRcYHfCYElYH8W-20" value="Set screen time&amp;nbsp;" style="text;html=1;align=center;verticalAlign=middle;whiteSpace=wrap;rounded=0;fontSize=12;movable=1;resizable=1;rotatable=1;deletable=1;editable=1;locked=0;connectable=1;" parent="WIyWlLk6GJQsqaUBKTNV-1" vertex="1">
          <mxGeometry x="510" y="302.5" width="111" height="30" as="geometry" />
        </mxCell>
        <mxCell id="q4vgkcuRcYHfCYElYH8W-21" value="" style="ellipse;whiteSpace=wrap;html=1;" parent="WIyWlLk6GJQsqaUBKTNV-1" vertex="1">
          <mxGeometry x="260" y="210" width="126" height="40" as="geometry" />
        </mxCell>
        <mxCell id="q4vgkcuRcYHfCYElYH8W-22" value="Lock applications" style="text;html=1;align=center;verticalAlign=middle;whiteSpace=wrap;rounded=0;fontSize=12;movable=1;resizable=1;rotatable=1;deletable=1;editable=1;locked=0;connectable=1;" parent="WIyWlLk6GJQsqaUBKTNV-1" vertex="1">
          <mxGeometry x="267.5" y="215" width="111" height="30" as="geometry" />
        </mxCell>
        <mxCell id="q4vgkcuRcYHfCYElYH8W-23" value="" style="endArrow=none;html=1;rounded=0;fontSize=12;startSize=8;endSize=8;curved=1;entryX=0.013;entryY=0.657;entryDx=0;entryDy=0;entryPerimeter=0;" parent="WIyWlLk6GJQsqaUBKTNV-1" target="q4vgkcuRcYHfCYElYH8W-12" edge="1">
          <mxGeometry width="50" height="50" relative="1" as="geometry">
            <mxPoint x="230" y="380" as="sourcePoint" />
            <mxPoint x="490" y="340" as="targetPoint" />
          </mxGeometry>
        </mxCell>
        <mxCell id="q4vgkcuRcYHfCYElYH8W-36" value="Update restrictions" style="text;html=1;align=center;verticalAlign=middle;whiteSpace=wrap;rounded=0;fontSize=12;movable=1;resizable=1;rotatable=1;deletable=1;editable=1;locked=0;connectable=1;" parent="WIyWlLk6GJQsqaUBKTNV-1" vertex="1">
          <mxGeometry x="300.87" y="412.5" width="111" height="30" as="geometry" />
        </mxCell>
        <mxCell id="q4vgkcuRcYHfCYElYH8W-38" value="" style="endArrow=none;html=1;rounded=0;fontSize=12;startSize=8;endSize=8;curved=1;entryX=0.02;entryY=0.348;entryDx=0;entryDy=0;entryPerimeter=0;" parent="WIyWlLk6GJQsqaUBKTNV-1" target="q4vgkcuRcYHfCYElYH8W-37" edge="1">
          <mxGeometry width="50" height="50" relative="1" as="geometry">
            <mxPoint x="226" y="398" as="sourcePoint" />
            <mxPoint x="290" y="420" as="targetPoint" />
          </mxGeometry>
        </mxCell>
        <mxCell id="q4vgkcuRcYHfCYElYH8W-41" style="edgeStyle=none;curved=1;rounded=0;orthogonalLoop=1;jettySize=auto;html=1;exitX=1;exitY=1;exitDx=0;exitDy=0;fontSize=12;startSize=8;endSize=8;" parent="WIyWlLk6GJQsqaUBKTNV-1" edge="1">
          <mxGeometry relative="1" as="geometry">
            <mxPoint x="375.5" y="493.7499999999999" as="sourcePoint" />
            <mxPoint x="375.5" y="493.7499999999999" as="targetPoint" />
          </mxGeometry>
        </mxCell>
        <mxCell id="q4vgkcuRcYHfCYElYH8W-44" value="" style="ellipse;whiteSpace=wrap;html=1;" parent="WIyWlLk6GJQsqaUBKTNV-1" vertex="1">
          <mxGeometry x="300.87" y="470" width="120" height="40" as="geometry" />
        </mxCell>
        <mxCell id="q4vgkcuRcYHfCYElYH8W-45" value="View device usage" style="text;html=1;align=center;verticalAlign=middle;whiteSpace=wrap;rounded=0;fontSize=12;movable=1;resizable=1;rotatable=1;deletable=1;editable=1;locked=0;connectable=1;" parent="WIyWlLk6GJQsqaUBKTNV-1" vertex="1">
          <mxGeometry x="305.37" y="475" width="104.63" height="30" as="geometry" />
        </mxCell>
        <mxCell id="q4vgkcuRcYHfCYElYH8W-48" value="" style="endArrow=none;html=1;rounded=0;fontSize=12;startSize=8;endSize=8;curved=1;" parent="WIyWlLk6GJQsqaUBKTNV-1" edge="1">
          <mxGeometry width="50" height="50" relative="1" as="geometry">
            <mxPoint x="226" y="404" as="sourcePoint" />
            <mxPoint x="310" y="480" as="targetPoint" />
          </mxGeometry>
        </mxCell>
        <mxCell id="q4vgkcuRcYHfCYElYH8W-49" value="" style="ellipse;whiteSpace=wrap;html=1;" parent="WIyWlLk6GJQsqaUBKTNV-1" vertex="1">
          <mxGeometry x="291.87" y="685" width="120" height="40" as="geometry" />
        </mxCell>
        <mxCell id="q4vgkcuRcYHfCYElYH8W-50" value="Sync device" style="text;html=1;align=center;verticalAlign=middle;whiteSpace=wrap;rounded=0;fontSize=12;movable=1;resizable=1;rotatable=1;deletable=1;editable=1;locked=0;connectable=1;" parent="WIyWlLk6GJQsqaUBKTNV-1" vertex="1">
          <mxGeometry x="295.5" y="690" width="111" height="30" as="geometry" />
        </mxCell>
        <mxCell id="q4vgkcuRcYHfCYElYH8W-51" value="" style="endArrow=none;html=1;rounded=0;fontSize=12;startSize=8;endSize=8;curved=1;entryX=0;entryY=0.5;entryDx=0;entryDy=0;" parent="WIyWlLk6GJQsqaUBKTNV-1" target="q4vgkcuRcYHfCYElYH8W-50" edge="1">
          <mxGeometry width="50" height="50" relative="1" as="geometry">
            <mxPoint x="225" y="742" as="sourcePoint" />
            <mxPoint x="290" y="710" as="targetPoint" />
          </mxGeometry>
        </mxCell>
        <mxCell id="q4vgkcuRcYHfCYElYH8W-57" value="" style="endArrow=none;dashed=1;html=1;rounded=0;fontSize=12;startSize=8;endSize=8;curved=1;exitX=0.418;exitY=0;exitDx=0;exitDy=0;exitPerimeter=0;entryX=0.549;entryY=1.013;entryDx=0;entryDy=0;entryPerimeter=0;" parent="WIyWlLk6GJQsqaUBKTNV-1" source="q4vgkcuRcYHfCYElYH8W-49" target="twzFkWzDYhUkVVQa9i6T-1" edge="1">
          <mxGeometry width="50" height="50" relative="1" as="geometry">
            <mxPoint x="420" y="700" as="sourcePoint" />
            <mxPoint x="459.57359312880726" y="745.8578643762692" as="targetPoint" />
          </mxGeometry>
        </mxCell>
        <mxCell id="q4vgkcuRcYHfCYElYH8W-60" value="&lt;div&gt;Login account&lt;/div&gt;" style="text;html=1;align=center;verticalAlign=middle;whiteSpace=wrap;rounded=0;fontSize=12;movable=1;resizable=1;rotatable=1;deletable=1;editable=1;locked=0;connectable=1;" parent="WIyWlLk6GJQsqaUBKTNV-1" vertex="1">
          <mxGeometry x="654.5" y="515" width="111" height="30" as="geometry" />
        </mxCell>
        <mxCell id="q4vgkcuRcYHfCYElYH8W-73" value="" style="endArrow=block;dashed=1;endFill=0;endSize=12;html=1;rounded=0;fontSize=12;curved=1;exitX=1;exitY=0.75;exitDx=0;exitDy=0;entryX=0.226;entryY=0.055;entryDx=0;entryDy=0;entryPerimeter=0;" parent="WIyWlLk6GJQsqaUBKTNV-1" target="q4vgkcuRcYHfCYElYH8W-61" edge="1">
          <mxGeometry width="160" relative="1" as="geometry">
            <mxPoint x="416.37" y="345" as="sourcePoint" />
            <mxPoint x="610" y="560" as="targetPoint" />
          </mxGeometry>
        </mxCell>
        <mxCell id="q4vgkcuRcYHfCYElYH8W-74" value="" style="endArrow=block;dashed=1;endFill=0;endSize=12;html=1;rounded=0;fontSize=12;curved=1;exitX=1;exitY=0.5;exitDx=0;exitDy=0;" parent="WIyWlLk6GJQsqaUBKTNV-1" source="q4vgkcuRcYHfCYElYH8W-37" edge="1">
          <mxGeometry width="160" relative="1" as="geometry">
            <mxPoint x="426" y="355" as="sourcePoint" />
            <mxPoint x="660" y="520" as="targetPoint" />
          </mxGeometry>
        </mxCell>
        <mxCell id="q4vgkcuRcYHfCYElYH8W-75" value="" style="endArrow=block;dashed=1;endFill=0;endSize=12;html=1;rounded=0;fontSize=12;curved=1;exitX=1;exitY=0.5;exitDx=0;exitDy=0;entryX=0;entryY=0.75;entryDx=0;entryDy=0;" parent="WIyWlLk6GJQsqaUBKTNV-1" source="q4vgkcuRcYHfCYElYH8W-44" target="q4vgkcuRcYHfCYElYH8W-60" edge="1">
          <mxGeometry width="160" relative="1" as="geometry">
            <mxPoint x="436" y="365" as="sourcePoint" />
            <mxPoint x="697" y="536" as="targetPoint" />
          </mxGeometry>
        </mxCell>
        <mxCell id="q4vgkcuRcYHfCYElYH8W-77" value="&amp;lt;&amp;lt;include&amp;gt;&amp;gt;" style="text;html=1;align=center;verticalAlign=middle;whiteSpace=wrap;rounded=0;fontSize=10;movable=1;resizable=1;rotatable=1;deletable=1;editable=1;locked=0;connectable=1;" parent="WIyWlLk6GJQsqaUBKTNV-1" vertex="1">
          <mxGeometry x="502.5" y="395" width="68.5" height="17.5" as="geometry" />
        </mxCell>
        <mxCell id="q4vgkcuRcYHfCYElYH8W-79" value="&amp;lt;&amp;lt;include&amp;gt;&amp;gt;" style="text;html=1;align=center;verticalAlign=middle;whiteSpace=wrap;rounded=0;fontSize=10;movable=1;resizable=1;rotatable=1;deletable=1;editable=1;locked=0;connectable=1;" parent="WIyWlLk6GJQsqaUBKTNV-1" vertex="1">
          <mxGeometry x="480" y="442.5" width="68.5" height="17.5" as="geometry" />
        </mxCell>
        <mxCell id="q4vgkcuRcYHfCYElYH8W-80" value="&amp;lt;&amp;lt;include&amp;gt;&amp;gt;" style="text;html=1;align=center;verticalAlign=middle;whiteSpace=wrap;rounded=0;fontSize=10;movable=1;resizable=1;rotatable=1;deletable=1;editable=1;locked=0;connectable=1;" parent="WIyWlLk6GJQsqaUBKTNV-1" vertex="1">
          <mxGeometry x="480" y="492.5" width="68.5" height="17.5" as="geometry" />
        </mxCell>
        <mxCell id="q4vgkcuRcYHfCYElYH8W-85" value="" style="endArrow=none;dashed=1;html=1;rounded=0;fontSize=12;startSize=8;endSize=8;curved=1;exitX=0.5;exitY=0;exitDx=0;exitDy=0;entryX=0.5;entryY=1;entryDx=0;entryDy=0;" parent="WIyWlLk6GJQsqaUBKTNV-1" target="q4vgkcuRcYHfCYElYH8W-21" edge="1">
          <mxGeometry width="50" height="50" relative="1" as="geometry">
            <mxPoint x="360.87" y="322.5" as="sourcePoint" />
            <mxPoint x="440" y="360" as="targetPoint" />
          </mxGeometry>
        </mxCell>
        <mxCell id="q4vgkcuRcYHfCYElYH8W-86" value="" style="endArrow=none;dashed=1;html=1;rounded=0;fontSize=12;startSize=8;endSize=8;curved=1;exitX=0.75;exitY=0;exitDx=0;exitDy=0;entryX=0.5;entryY=1;entryDx=0;entryDy=0;" parent="WIyWlLk6GJQsqaUBKTNV-1" target="q4vgkcuRcYHfCYElYH8W-18" edge="1">
          <mxGeometry width="50" height="50" relative="1" as="geometry">
            <mxPoint x="388.62" y="322.5" as="sourcePoint" />
            <mxPoint x="333" y="260" as="targetPoint" />
          </mxGeometry>
        </mxCell>
        <mxCell id="q4vgkcuRcYHfCYElYH8W-87" value="" style="endArrow=none;dashed=1;html=1;rounded=0;fontSize=12;startSize=8;endSize=8;curved=1;exitX=1;exitY=0.5;exitDx=0;exitDy=0;" parent="WIyWlLk6GJQsqaUBKTNV-1" source="q4vgkcuRcYHfCYElYH8W-12" edge="1">
          <mxGeometry width="50" height="50" relative="1" as="geometry">
            <mxPoint x="381" y="343" as="sourcePoint" />
            <mxPoint x="500" y="318" as="targetPoint" />
          </mxGeometry>
        </mxCell>
        <mxCell id="q4vgkcuRcYHfCYElYH8W-91" value="&amp;lt;&amp;lt;include&amp;gt;&amp;gt;" style="text;html=1;align=center;verticalAlign=middle;whiteSpace=wrap;rounded=0;fontSize=10;movable=1;resizable=1;rotatable=1;deletable=1;editable=1;locked=0;connectable=1;" parent="WIyWlLk6GJQsqaUBKTNV-1" vertex="1">
          <mxGeometry x="288.75" y="624" width="68.5" height="17.5" as="geometry" />
        </mxCell>
        <mxCell id="q4vgkcuRcYHfCYElYH8W-93" value="&amp;lt;&amp;lt;include&amp;gt;&amp;gt;" style="text;html=1;align=center;verticalAlign=middle;whiteSpace=wrap;rounded=0;fontSize=10;movable=1;resizable=1;rotatable=1;deletable=1;editable=1;locked=0;connectable=1;" parent="WIyWlLk6GJQsqaUBKTNV-1" vertex="1">
          <mxGeometry x="276.5" y="275" width="68.5" height="17.5" as="geometry" />
        </mxCell>
        <mxCell id="q4vgkcuRcYHfCYElYH8W-94" value="&amp;lt;&amp;lt;include&amp;gt;&amp;gt;" style="text;html=1;align=center;verticalAlign=middle;whiteSpace=wrap;rounded=0;fontSize=10;movable=1;resizable=1;rotatable=1;deletable=1;editable=1;locked=0;connectable=1;" parent="WIyWlLk6GJQsqaUBKTNV-1" vertex="1">
          <mxGeometry x="386" y="285" width="68.5" height="17.5" as="geometry" />
        </mxCell>
        <mxCell id="q4vgkcuRcYHfCYElYH8W-95" value="&amp;lt;&amp;lt;include&amp;gt;&amp;gt;" style="text;html=1;align=center;verticalAlign=middle;whiteSpace=wrap;rounded=0;fontSize=10;movable=1;resizable=1;rotatable=1;deletable=1;editable=1;locked=0;connectable=1;" parent="WIyWlLk6GJQsqaUBKTNV-1" vertex="1">
          <mxGeometry x="421.5" y="308.75" width="68.5" height="17.5" as="geometry" />
        </mxCell>
        <mxCell id="q4vgkcuRcYHfCYElYH8W-96" value="Set Restrictions" style="text;html=1;align=center;verticalAlign=middle;whiteSpace=wrap;rounded=0;fontSize=12;movable=1;resizable=1;rotatable=1;deletable=1;editable=1;locked=0;connectable=1;" parent="WIyWlLk6GJQsqaUBKTNV-1" vertex="1">
          <mxGeometry x="303" y="322.5" width="111" height="30" as="geometry" />
        </mxCell>
        <mxCell id="twzFkWzDYhUkVVQa9i6T-1" value="" style="ellipse;whiteSpace=wrap;html=1;" vertex="1" parent="WIyWlLk6GJQsqaUBKTNV-1">
          <mxGeometry x="300.87" y="540" width="120" height="40" as="geometry" />
        </mxCell>
        <mxCell id="twzFkWzDYhUkVVQa9i6T-0" value="Register account" style="text;html=1;align=center;verticalAlign=middle;whiteSpace=wrap;rounded=0;fontSize=12;movable=1;resizable=1;rotatable=1;deletable=1;editable=1;locked=0;connectable=1;" vertex="1" parent="WIyWlLk6GJQsqaUBKTNV-1">
          <mxGeometry x="309.37" y="545" width="104.63" height="30" as="geometry" />
        </mxCell>
        <mxCell id="twzFkWzDYhUkVVQa9i6T-2" value="" style="endArrow=none;html=1;rounded=0;fontSize=12;startSize=8;endSize=8;curved=1;entryX=0;entryY=0;entryDx=0;entryDy=0;" edge="1" parent="WIyWlLk6GJQsqaUBKTNV-1" target="twzFkWzDYhUkVVQa9i6T-0">
          <mxGeometry width="50" height="50" relative="1" as="geometry">
            <mxPoint x="225" y="411" as="sourcePoint" />
            <mxPoint x="320" y="490" as="targetPoint" />
          </mxGeometry>
        </mxCell>
      </root>
    </mxGraphModel>
  </diagram>
</mxfile>
